# xmcd
#
# Track frame offsets:
#	150
#	16650
#	36237
#	56087
#	74400
#	99037
#	117832
#	140475
#	158762
#	177887
#
# Disc length: 2621 seconds
#
# Revision: 1
# Processed by: cddbd v1.5.2PL0 Copyright (c) Steve Scherf et al.
# Submitted via: EZCDAudioConverter 8.0.2.1
#
DISCID=7b0a3b0a
DTITLE=Chung Tử Lưu - Cafe Đắng Trở lại
DYEAR=1996
DGENRE=Miscellaneous
TTITLE0=Cafe Đắng Trở lại
TTITLE1=Đàn bà 2
TTITLE2=Xa rồi tuổi thơ
TTITLE3=Có là muôn thuở
TTITLE4=Yêu thầm
TTITLE5=Hai khía cạnh cuộc đời
TTITLE6=Nghẹn ngào
TTITLE7=Xin dìu nhau đi đến tình yêu
TTITLE8=Mưa lệ
TTITLE9=Dáng xưa
EXTD=
EXTT0=
EXTT1=
EXTT2=
EXTT3=
EXTT4=
EXTT5=
EXTT6=
EXTT7=
EXTT8=
EXTT9=
PLAYORDER=
